<svg width="28" height="28" viewBox="0 0 28 28" fill="none" xmlns="http://www.w3.org/2000/svg">
<path fill-rule="evenodd" clip-rule="evenodd" d="M13.9991 0C6.26832 0 0 6.42659 0 14.3544C0 20.6957 4.01025 26.0761 9.57489 27.9748C10.2751 28.1058 10.4956 27.6805 10.4956 27.3C10.4956 26.959 10.5026 26.0061 10.4956 24.8081C6.60178 25.6759 5.79482 22.9175 5.79482 22.9175C5.15854 21.2593 4.24131 20.8178 4.24131 20.8178C2.97049 19.9276 4.33671 19.9447 4.33671 19.9447C5.74144 20.0461 6.48187 21.4244 6.48187 21.4244C7.73081 23.6165 9.75781 22.983 10.5551 22.6169C10.6829 21.6891 11.0453 21.0565 11.4452 20.6975C8.33646 20.335 5.06839 19.1039 5.06839 13.6033C5.06839 12.0357 5.61365 10.7553 6.509 9.75205C6.36459 9.38953 5.88322 7.9296 6.64641 5.95281C6.64641 5.95281 7.82183 5.56696 10.4956 7.42531C11.6124 7.10676 12.8106 6.94793 14.0009 6.94255C15.1903 6.94793 16.3876 7.10676 17.5061 7.42531C20.1799 5.56786 21.3536 5.95281 21.3536 5.95281C22.1168 7.9296 21.6363 9.38953 21.4928 9.75205C22.3881 10.7553 22.9316 12.0357 22.9316 13.6033C22.9316 19.1183 19.6583 20.3314 16.539 20.6859C17.0414 21.13 17.4974 21.9915 17.4974 23.3303C17.4974 25.1249 17.4974 26.8316 17.4974 27.3036C17.4974 27.6876 17.7232 28.1121 18.4339 27.973C23.9932 26.0716 28 20.6939 28 14.3544C28 6.42659 21.7317 0 13.9991 0Z" fill="#B52B65"/>
</svg>
